<?xml version="1.0" encoding="utf-8"?>
<!-- Generator: Adobe Illustrator 16.0.0, SVG Export Plug-In . SVG Version: 6.00 Build 0)  -->
<!DOCTYPE svg PUBLIC "-//W3C//DTD SVG 1.1//EN" "http://www.w3.org/Graphics/SVG/1.1/DTD/svg11.dtd">
<svg version="1.1" id="Layer_2" xmlns="http://www.w3.org/2000/svg" xmlns:xlink="http://www.w3.org/1999/xlink" x="0px" y="0px"
	 width="240px" height="320px" viewBox="0 0 240 320" enable-background="new 0 0 240 320" xml:space="preserve">
<g>
	<path fill="#FFFFFF" d="M109.973,319.129c-24.594,0-50.94-9.515-70.477-25.453c-16.999-13.868-37.264-39.331-37.264-81.882
		c0-33.163,12.805-76.867,34.252-116.909C46.092,76.948,56.503,61.58,66.591,50.44c11.091-12.245,20.89-18.454,29.126-18.454
		c3.729,0,6.951,1.264,9.315,3.654c1.489,1.506,2.595,3.438,3.207,5.521c14.378-18.592,31.076-35.294,44.662-35.294
		c11.229,0,15.403,8.709,15.613,16.428c11.201-12.283,22.847-21.424,32.698-21.424c12.411,0,18.064,8.549,18.064,16.491
		c0,4.938-1.018,8.439-2.955,11.72c1.62-0.325,3.239-0.443,4.938-0.443c9.411,0,16.508,7.299,16.508,16.978
		c0,8.797-5.07,15.961-13.47,27.831c-11.174,15.791-28.061,39.653-46.698,86.455c-2.771,6.958-9.548,8.673-14.965,7.958
		c-25.409-3.359-50.549,3.38-67.249,18.021c-10.401,9.117-16.129,20.438-16.129,31.875c0,28.388,24.036,38.46,44.62,38.46
		c22.201,0,38.272-11.072,38.272-18.536c0-2.066-0.395-3.438-1.173-4.076c-2.057-1.687-8.326-0.436-14.391,0.774
		c-11.089,2.211-24.891,4.963-37.287-2.087c-5.433-3.089-8.866-7.281-10.205-12.46c-1.731-6.692,0.712-12.844,1.704-14.471
		c3.957-6.479,6.966-6.908,11.548-7.073c1.908-0.069,4.07-0.146,7.119-0.883c2.336-0.564,6.559-1.92,11.904-3.636
		c16.553-5.312,44.258-14.205,62.255-14.205c20.264,0,30.865,21.831,30.865,43.396c0,14.449-6.459,38.683-24.663,59.423
		C185.114,299.146,157.582,319.129,109.973,319.129z M95.717,37.986c-26.746,0-87.484,101.002-87.484,173.808
		c0,40.196,19.063,64.187,35.057,77.233c18.499,15.092,43.428,24.102,66.684,24.102c45.364,0,71.449-18.871,85.344-34.702
		c17.104-19.487,23.173-42.059,23.173-55.466c0-18.584-8.541-37.396-24.865-37.396c-17.058,0-44.203,8.713-60.422,13.918
		c-5.463,1.754-9.777,3.139-12.329,3.755c-3.637,0.878-6.339,0.976-8.312,1.047c-3.448,0.124-4.166,0.149-6.642,4.203
		c-0.021,0.036-2.396,4.703-0.99,9.947c0.938,3.5,3.406,6.407,7.336,8.643c10.451,5.944,23.035,3.434,33.147,1.418
		c8.447-1.685,15.119-3.017,19.368,0.471c2.267,1.858,3.368,4.709,3.368,8.715c0,11.582-18.934,24.536-44.272,24.536
		c-25.196,0-50.62-13.747-50.62-44.46c0-13.191,6.454-26.114,18.174-36.388c17.982-15.763,44.899-23.033,71.989-19.458
		c1.975,0.263,6.773,0.373,8.605-4.229c18.901-47.465,36.036-71.679,47.375-87.701c7.712-10.898,12.367-17.477,12.367-24.365
		c0-6.258-4.518-10.978-10.508-10.978c-5.289,0-9.928,1.008-21.394,13.985c-10.803,13.096-26.821,35.804-48.843,81.285
		c-0.722,1.49-2.513,2.116-4.008,1.393c-1.491-0.722-2.114-2.517-1.393-4.008c22.182-45.812,38.43-68.902,49.442-82.282
		c0.048-0.064,0.1-0.128,0.154-0.19c0.012-0.014,0.024-0.027,0.036-0.041c3.479-4.214,6.428-7.454,8.873-10.141
		c6.657-7.314,9.148-10.052,9.148-17.277c0-4.84-3.159-10.491-12.064-10.491c-26.656,0-81.598,93.682-89.569,119.719
		c-0.484,1.584-2.167,2.475-3.746,1.99c-1.585-0.484-2.476-2.162-1.99-3.746c3.955-12.922,19.456-43.131,38.549-71.317
		c3.187-4.704,6.633-9.585,10.247-14.394c5.317-7.493,7.82-12.703,7.82-16.209c0-3.321-0.938-11.047-9.622-11.047
		c-10.998,0-28.562,16.232-48.597,44.772c-0.391,0.581-0.802,1.169-1.231,1.769c-0.013,0.019-0.026,0.037-0.041,0.056
		c-0.775,1.12-1.555,2.257-2.338,3.413c-18.425,27.206-33.91,57.367-37.691,69.71c-0.485,1.584-2.162,2.476-3.747,1.989
		c-1.584-0.485-2.475-2.163-1.989-3.747c3.907-12.756,19.723-43.649,38.46-71.316c1.157-1.709,2.349-3.44,3.571-5.184
		c2.434-3.624,3.46-6.12,3.485-8.367c0.017-1.464-0.505-3.573-2.018-5.103C99.537,38.616,97.838,37.986,95.717,37.986z"/>
</g>
</svg>
